<svg xmlns="http://www.w3.org/2000/svg" version="1.1" xmlns:xlink="http://www.w3.org/1999/xlink" xmlns:svgjs="http://svgjs.dev/svgjs" width="128" height="128" viewBox="0 0 128 128"><g transform="matrix(0.4517543859649123,0,0,0.4517543859649123,34.85827378473049,12.5)"><svg viewBox="0 0 126 225" data-background-color="#000000" preserveAspectRatio="xMidYMid meet" height="228" width="128" xmlns="http://www.w3.org/2000/svg" xmlns:xlink="http://www.w3.org/1999/xlink"><g id="tight-bounds" transform="matrix(1,0,0,1,0.5000090382932001,0)"><svg viewBox="0 0 125 225" height="225" width="125"><g><svg></svg></g><g><svg viewBox="0 0 125 225" height="225" width="125"><g><path d="M64.538 160.686c-0.549-0.686-1.097-0.274-1.097-0.686-3.291 0.823-9.462-1.371-12.068-1.097 0.549-0.823-0.823-0.686-0.823-1.234-0.549 0.823-1.097 0-1.92 0.274-0.823-2.057-4.114-0.549-4.525-3.154-1.92 0-2.606-1.097-4.526-2.194 0.137-0.137 0.274-0.137 0.412-0.274-0.96-0.137-0.96-0.686-1.783-0.686l0.274-0.548c-1.508-0.274-2.057-2.606-4.251-3.429-0.686-0.137-2.194-2.468-3.017-3.017-0.411-0.274-1.097-0.274-0.137-0.411-0.137-0.137-0.137-0.411 0-0.549-0.96-0.274-1.097-1.097-2.331-1.508-0.137-0.411 0.274-0.686 0-0.96-0.274-0.137-0.686 0.137-0.96 0-0.137 2.468 2.606 2.743 3.428 4.8-0.274-0.274-0.686-1.097-0.96-0.549-0.137 0.411 1.097 1.92 1.097 1.097-0.411 0.274-0.549-0.411-0.274-0.548 0.411 0.686 1.234 0.549 1.234 1.097-0.411 0.411-0.96-0.411-0.822 0.274 1.234 0.686 1.097 1.371 1.782 2.331-0.549-0.686-0.686 0.549-1.234 0-0.137-2.057-2.468-1.646-2.468-3.702-0.274-0.686-0.549-0.137-0.96-0.412 0.549-0.549-1.646-2.468-1.646-1.783-0.686-0.823-0.274-1.097-0.411-1.645-0.549-0.137-0.137 0.549-0.549 0.137 0.549-0.96-0.686-2.194-1.508-3.154l0.548-0.274c-0.96-0.549-1.097-1.646-1.783-2.88-0.823 1.234 1.646 3.977 1.235 4.525 0 0.137 0.96 1.234 1.234 1.783 1.097 1.92 1.92 4.251 3.428 5.348-0.274-0.137-0.137-0.96 0.275-0.548 0 0.411-0.274 0.823-0.275 1.234 0.823 0.823 1.508 1.508 2.332 2.331-1.783-1.097-3.566-2.194-4.8-3.84 0.686-0.137 1.371 1.097 1.92 0.96-1.371-1.097-0.96-1.508-1.509-2.88-0.549-0.411 0.137 0.549-0.411 0.686-1.783-1.646-3.154-2.606-3.977-4.114 0.137-0.137 0.274-0.274 0.274-0.548-0.137-0.137-0.137-0.137-0.274-0.275 0.823 0.823 1.097 1.508 2.057 1.646-0.411-0.411 0-0.549-0.549-0.96-0.274-0.549-0.686 0.274-0.96-0.137 0.274-0.411 0-0.96 0-1.372-0.274 0-0.549 0-0.685-0.411-0.274-0.137-0.411 0-0.549 0.274-0.137-0.137-0.137-0.411-0.274-0.548v-0.137c-0.137-0.137-0.274-0.411-0.411-0.549-1.097-2.88-1.783-6.72-3.292-9.188 0.411-1.646-0.274-4.937-0.685-5.76 0.411-0.686 0.137-3.84-0.137-4.388-0.686 0.274 0.137 1.783-0.549 2.194-0.686-3.017 0.411-6.445 0.137-9.188 0.274 0 0.549 0 0.549-0.137-0.411-0.411 0.274-1.234 0.137-2.194 0.549-1.234-1.234 1.783-1.234 3.017-0.137 0.274-0.686 0-0.549 0.686 0 0.96 0.274 2.88-0.274 4.251-0.274 0-0.274-0.274-0.549-0.137-0.137 0.686-0.274 1.508-0.411 2.194-0.137-0.274-0.274-0.686-0.274-0.823-0.686-3.428 0-7.405-0.275-10.285 0.549 0 0.549-0.823 0.96-1.097-0.137 1.097-0.411 2.468 0.275 2.743 0.549-5.348 1.646-11.245 4.114-17.005 1.783-4.251 4.388-8.502 7.542-11.931 0.274 0.411-0.137 1.371 0 1.783 2.743-2.88 4.525-6.308 7.542-8.228 0.137 0.686-1.234 1.234-1.234 1.782 1.234-1.234 1.646-0.823 3.017-1.234 0.411-0.549-0.549 0-0.686-0.548 0.823-0.549 1.371-1.234 1.92-1.646 0 0.137-0.137 0.137-0.137 0.274 1.508-0.411 1.646-1.234 2.743-1.508-0.137-0.137-0.411-0.274-0.823-0.137 0.274-0.137 0.686-0.411 1.097-0.549-0.137 0-0.137 0.137-0.274 0.137 0.823-0.411 0.137 0.137 0.137 0.412 0.137 0 0.274-0.137 0.274-0.137-0.823 0.549-1.371 0.823-1.645 1.782 0.411-0.274 0.549 0 1.097-0.411 0.549-0.274-0.137-0.686 0.274-0.96 0.411 0.274 0.96 0.137 1.371 0.137 0-0.274 0.137-0.549 0.412-0.685 0.137-0.274 0-0.411-0.137-0.412 0.137-0.137 0.274-0.137 0.548-0.274 0 0 0.137 0 0.137 0.137 2.331-1.097 4.937-2.057 7.406-2.88 1.508-0.137 3.428-0.137 4.251-1.097-0.274 0-0.549 0.137-0.686 0 0.137 0 0.411-0.137 0.549-0.137 0.274 0.274 0.686 0 0.274 0.548 0.137 0 0.137 0 0.274-0.137 0 0.137 0 0.137 0.137 0.275 0.137 0 0.274-0.137 0.412-0.412 0.137 0 0.274 0 0.411-0.137l-0.137 0.137c1.097-0.274 2.057-0.137 3.566-0.411 0-0.137 0-0.274 0-0.412 0.274 0 0.411-0.137 0.685-0.137v0.137c0.549-0.274 1.097 0.274 1.097 0 0.137 0 0.137 0 0.275 0 0 0.274-0.137 0.411-0.138 0.549 0.686 0 1.097 0 1.372-0.411-0.137-0.137-0.274-0.137-0.412-0.138 0.274 0 0.549-0.137 0.823-0.274 0.411 0.137 0.549 0.274 0.549 0.823 0.686-1.234 2.88 0.274 3.84 0 0.411 0 0.274-0.549 0.548-0.823 0.137 0 0.274 0 0.411 0 0.686 0.549 1.646 1.097 2.88 1.234-1.097-0.274 0.137-0.411 0.275-0.548-0.274 0-0.274-0.137-0.275-0.274 0.411 0 0.823 0.137 1.234 0.137 0 0.274 0.137 0.411 0.412 0.411 0.274 0 0.274-0.137 0.274-0.411 0.411 0 0.686 0 1.097 0.137-0.137 0.549 0.686 0.686 0.96 1.097-1.097-0.274-2.331-0.686-2.743 0 4.388 0.96 9.188 2.331 13.851 4.662 0 0 0 0 0 0.138h0.137c0.823 0.411 1.646 0.823 2.469 1.234 0.549 0.274 0.96 0.549 1.508 0.96 0 0.137 0 0.274 0.274 0.274h0.138c0.549 0.411 1.097 0.686 1.645 1.097 0.549 0.823 1.097 1.92 2.057 1.646 2.057 3.154 4.251 4.388 6.034 7.679 0.137-0.549 0.549 1.234 1.234 1.372-1.097-0.137 0.686 0.686-0.411 0.548 0.96 0.96 1.234 1.371 1.371 2.469-0.274-0.549-0.411-0.686-0.548-0.138-0.137 0.823 0.96-0.137 1.371 0.686-0.823 0-0.549 0.549-0.411 1.234 0.411-0.411 0.274-0.823 0.685-0.685 0.549 0.549-0.274 0.686-0.137 1.097 0.411-0.549 0.549-0.274 1.097 0-0.686 0.137 0.411 1.097-0.411 0.685 0.549 0.686 0.686 1.097 0.411 1.783-0.549-0.823-0.137-1.371-0.96-1.234 1.646 1.371 0.823 4.525 2.743 4.8-1.234 0.274 0 0.823-0.686 0.96 0.823 0.274 0.411 1.371 1.372 1.645-0.137 0.686-0.411 1.097-0.549 1.783 0.411 0.549 0.549 1.646 1.234 1.783-0.411 0.411-0.137 1.508-0.548 1.92 0.549-0.274 0.823-0.274 1.234 0.274-0.686 0.549-0.137 1.097-0.548 1.234 1.234 3.154-0.274 9.599 0.411 12.068-0.823-0.411-0.549 0.96-1.097 0.96 0.96 0.411 0.137 1.097 0.548 1.783-1.92 1.097 0 4.114-2.605 4.799 0.274 1.92-0.823 2.743-1.646 4.8-0.137-0.137-0.137-0.274-0.274-0.411-0.137 0.96-0.686 1.097-0.411 1.92l-0.549-0.275c0 1.508-2.331 2.331-2.88 4.663-0.137 0.686-2.194 2.468-2.743 3.428-0.274 0.411-0.137 1.097-0.411 0.137-0.137 0.137-0.411 0.137-0.548 0.138-0.137 0.96-0.96 1.234-1.235 2.468-0.274 0.137-0.686-0.274-0.96 0.137 0 0.274 0.274 0.686 0.138 0.96 2.468-0.137 2.468-3.017 4.388-3.977-0.137 0.411-0.96 0.823-0.412 1.097 0.411 0 1.646-1.371 0.96-1.234 0.411 0.274-0.411 0.549-0.548 0.411 0.686-0.549 0.411-1.234 0.96-1.371 0.411 0.274-0.411 0.96 0.411 0.823 0.549-1.234 1.234-1.371 2.057-2.057-0.549 0.549 0.686 0.686 0.137 1.234-2.057 0.411-1.371 2.743-3.428 3.017-0.549 0.411-0.137 0.549-0.274 0.96-0.686-0.411-2.194 1.92-1.646 1.783-0.686 0.686-1.097 0.411-1.646 0.548-0.137 0.549 0.549 0.137 0.275 0.549-0.96-0.411-2.194 0.96-3.017 1.92l-0.412-0.412c-0.411 1.097-1.508 1.234-2.742 2.057 1.371 0.686 3.703-2.194 4.388-1.782 0.137 0 1.234-1.097 1.646-1.509 1.783-1.371 3.977-2.468 4.799-3.977-0.137 0.274-0.96 0.274-0.548-0.137 0.411-0.137 0.823 0.137 1.234 0.137 2.194-3.017 4.937-5.485 6.994-9.051 0.137-0.137 0.274-0.411 0.411-0.685-0.274 0.823-0.686 1.508-0.96 2.331-2.194 1.508-3.017 5.897-5.622 6.582 0.137 1.508-1.234 1.92-1.92 3.703-0.411 0.549-0.686-0.411-1.097 0.274 0.411 1.92-3.428 1.783-3.291 3.566-0.274 0.137-0.686 0.274-0.96 0.548h-0.138c-0.137 0.137-0.137 0.137-0.274 0.275-0.686 0.411-1.234 0.823-1.783 1.234-1.92 1.097-4.525 1.92-6.582 3.017v-0.137c-0.549 0.274-1.234 0.137-1.097 0.685-0.411 0.274-0.823 0.549-1.234 0.823-0.137 0-0.137 0-0.275 0 0 0-0.137-0.137-0.274-0.137-0.274 0-0.274 0-0.411 0.137-1.783 0.137-4.114 0.96-4.8 1.509-0.686-0.411-3.84 0.274-4.388 0.548 0.274 0.411 1.097 0 1.782 0-0.411 0.137-0.823 0.274-0.959 0.549-0.137 0-0.137 0-0.275 0-0.137-0.411-0.549 0-0.685-0.137h0.137c-0.137-0.549-0.549-0.823-1.234-0.686 0 0.274 0 0.411-0.138 0.686 0.274 0 1.097-0.411 1.097 0-0.137 0-0.137 0.137 0 0.137-0.274 0.274-0.686 0.274-0.959 0.411-0.549 0-1.234 0-1.783 0-0.137-0.137-0.274-0.137-0.549-0.274-0.137 0.137-0.411 0.137-0.548 0.274-0.823 0-1.783 0.137-2.469 0.274 0-0.274 0-0.549-0.274-0.548-0.411 0.549-1.234-0.137-2.194 0.137-0.96-0.274 0.549 0.411 1.92 0.686-0.137 0.137-0.274 0.274-0.686 0.411M45.339 162.606c-1.92-1.783-5.897-2.606-6.582-3.977-1.097-0.137-2.743-2.194-4.114-2.468 0.686 0 0.137-0.411 0-0.686-0.274 0.274-0.549 0.411-0.823 0.411 0-1.097-1.097-1.783-2.057-2.468 0.686 0.411 1.234 0.686 2.057 0.823 0-0.274 0-0.549 0.274-0.549 0.96 0.96 2.057 1.92 3.291 2.88 1.646 1.508 10.148 5.348 11.657 6.034 0 0-0.274 0.549-0.137 0.548 0.686 0.411 1.234-0.411 1.371 0.549-2.194 0.274-3.017-1.234-4.937-1.097M108.558 130.791v0.137 0c-0.137 0 0-0.137 0-0.137M53.156 67.297c-0.137 0.137-0.274 0.137-0.274 0.137 0-0.137 0.137-0.137 0.274-0.137M50.55 67.983c0 0.137 0 0.137 0 0 0 0.137 0 0.137 0 0 0 0.137 0 0 0 0M41.499 70.863v0c0.137-0.137 0.137-0.137 0.275-0.137-0.137 0-0.274 0.137-0.275 0.137M63.441 66.337c-0.274 0-0.411 0-0.549-0.137 0.137 0 0.274 0 0.412 0h0.137c0 0 0 0 0 0.137M65.909 66.611c-0.137-0.137-0.549-0.274-0.96-0.274 0-0.137 0.137-0.274 0.138-0.274 0.137 0 0.274 0 0.411 0 0 0 0.137 0 0.137 0.137 0 0 0 0 0-0.137 0.137 0 0.137 0 0.274 0 0.137 0.274 0.274 0.411 0 0.548M70.435 67.023c-0.686 0.137-1.097-0.137-1.783-0.549 0.411 0 0.96 0.137 1.371 0.275 0.137 0 0.274 0.137 0.412 0.274M119.255 86.496c-0.274 0.137-0.411 0.137-0.686-0.411-2.194-4.663-6.171-11.382-11.931-17.005-5.623-5.76-13.165-10.422-20.021-12.891 0.411 0.137 0.96 0.411 0.685 0.686-6.034-2.331-11.794-3.703-17.279-4.251-14.811-2.331-30.307 0.823-42.237 8.502 0.137 0.274 0.137 0.411-0.274 0.686-4.388 2.743-10.559 7.542-15.497 13.85-4.937 6.308-8.777 14.262-10.422 21.393 0.137-0.411 0.274-1.097 0.549-0.822-3.566 14.125-2.606 26.193 2.331 36.615 0.274-0.274-0.686-1.646 0.137-1.509 0.549 1.508 1.234 3.154 2.057 4.663 0.96 2.194 2.057 5.074 3.566 5.759-3.84-7.542-6.445-16.182-6.72-23.861 0.549 1.097 0.411 3.428 1.234 4.388 0.274-5.211-0.96-12.205 0.823-17.142-0.411 2.606-0.686 6.171-0.411 9.737 0 2.606 1.234 9.874 2.057 10.559-0.137-0.137-0.137-0.823 0-0.822 0.411 0.823-0.549 1.234 0.137 1.371 0-0.274 0.137-0.274 0.274-0.274 1.371 3.017 3.154 7.68 4.526 10.01 1.646 3.017 3.84 5.76 6.308 8.229 0 0.137 0.137 0.137 0.137 0.274 0.274 0.686 1.234 1.508 1.508 2.057 0.137 0.274-0.137 0.686 0 0.96 2.057 3.84 5.074 7.68 8.777 10.696 2.331 2.743 6.034 5.623 10.559 8.091 4.388 2.331 9.462 4.251 14.125 5.348 3.291 0.823 7.268 0.96 9.737 1.509 3.291 0.686 9.051-0.274 11.931-0.823 17.279-2.606 34.421-14.399 43.06-31.404 8.914-17.142 8.639-38.123 0.96-54.168" fill="#000000" fill-rule="nonzero" stroke="none" stroke-width="1" stroke-linecap="butt" stroke-linejoin="miter" stroke-miterlimit="10" stroke-dasharray="" stroke-dashoffset="0" font-family="none" font-weight="none" font-size="none" text-anchor="none" style="mix-blend-mode: normal" data-fill-palette-color="tertiary"></path></g><g transform="matrix(1,0,0,1,43.1875,90.3077975376197)"><svg viewBox="0 0 38.625 44.384404924760595" height="44.384404924760595" width="38.625"><g><svg viewBox="0 0 38.625 44.384404924760595" height="44.384404924760595" width="38.625"><g><svg viewBox="0 0 38.625 44.384404924760595" height="44.384404924760595" width="38.625"><g id="textblocktransform"><svg viewBox="0 0 38.625 44.384404924760595" height="44.384404924760595" width="38.625" id="textblock"><g><svg viewBox="0 0 38.625 44.384404924760595" height="44.384404924760595" width="38.625"><g transform="matrix(1,0,0,1,0,0)"><svg width="38.625" viewBox="0.2 -40.1 36.55 42.00000000000001" height="44.384404924760595" data-palette-color="#ffffff"><path d="M22.2 1.9L22.2 1.9Q20.05 1.9 17.6 1.33 15.15 0.75 12.83-0.28 10.5-1.3 8.68-2.6 6.85-3.9 5.95-5.4L5.95-5.4Q5.55-5.4 5.05-5.35 4.55-5.3 4-5.3L4-5.3Q3.4-5.3 2.5-5.5 1.6-5.7 0.9-6.2 0.2-6.7 0.2-7.55L0.2-7.55Q0.2-7.95 0.78-8.25 1.35-8.55 2.95-8.55L2.95-8.55Q6.05-8.55 7.25-6.65L7.25-6.65Q8.9-6.45 10.75-6.35 12.6-6.25 14.55-6.25L14.55-6.25Q16.55-6.25 18.57-6.35 20.6-6.45 22.6-6.7L22.6-6.7Q21.5-8.45 20.13-10.2 18.75-11.95 17.95-13.05L17.95-13.05Q16.1-15.55 14.3-18.23 12.5-20.9 10.85-24.3L10.85-24.3Q10.2-25.6 10.2-26.95L10.2-26.95Q10.2-28.95 11.45-30.73 12.7-32.5 14.6-34 16.5-35.5 18.63-36.63 20.75-37.75 22.45-38.5L22.45-38.5Q24.25-39.25 26.1-39.68 27.95-40.1 29.65-40.1L29.65-40.1Q30.65-40.1 31.55-39.95L31.55-39.95Q32.8-39.75 33.98-38.63 35.15-37.5 35.95-35.98 36.75-34.45 36.75-32.95L36.75-32.95Q36.75-31.55 36.08-29.73 35.4-27.9 34.35-26.03 33.3-24.15 32.1-22.53 30.9-20.9 29.88-19.9 28.85-18.9 28.25-18.9L28.25-18.9Q27.4-18.9 26.73-19.8 26.05-20.7 26.05-21.2L26.05-21.2Q26.05-21.5 26.2-21.55L26.2-21.55Q27.55-22.55 29.05-24.25 30.55-25.95 31.83-27.93 33.1-29.9 33.93-31.83 34.75-33.75 34.75-35.15L34.75-35.15Q34.75-36.75 33.58-37.33 32.4-37.9 30.65-37.9L30.65-37.9Q29-37.9 27.15-37.38 25.3-36.85 23.9-36.15L23.9-36.15Q19.35-33.9 16.9-31.83 14.45-29.75 13.53-27.95 12.6-26.15 12.6-24.65L12.6-24.65Q12.6-23.1 14.1-20.53 15.6-17.95 19.2-13.6L19.2-13.6Q20.55-11.95 22.13-10.28 23.7-8.6 25-7.05L25-7.05Q27.35-7.45 29.38-8.05 31.4-8.65 32.95-9.45L32.95-9.45Q33-9.5 33.1-9.5L33.1-9.5Q33.25-9.5 33.25-9.35L33.25-9.35Q33.25-8.95 32.9-8.75L32.9-8.75Q31.8-7.95 29.95-7.3 28.1-6.65 25.75-6.15L25.75-6.15Q26.75-4.95 27.35-3.88 27.95-2.8 27.95-1.95L27.95-1.95Q27.95 0.1 26.33 1 24.7 1.9 22.2 1.9ZM19.75 0.15L19.75 0.15Q21.7 0.15 22.98-0.55 24.25-1.25 24.25-2.7L24.25-2.7Q24.25-3.3 23.95-4.08 23.65-4.85 23.15-5.7L23.15-5.7Q18.5-5 13.55-5L13.55-5Q10.65-5 8-5.3L8-5.3Q9.2-3.7 11.18-2.45 13.15-1.2 15.43-0.53 17.7 0.15 19.75 0.15Z" opacity="1" transform="matrix(1,0,0,1,0,0)" fill="#000000" class="wordmark-text-0" data-fill-palette-color="primary" id="text-0"></path></svg></g></svg></g></svg></g></svg></g><g></g></svg></g></svg></g></svg></g><defs></defs></svg><rect width="125" height="225" fill="none" stroke="none" visibility="hidden"></rect></g></svg></g></svg>